HIERARCHY
ROOT hip
{
	OFFSET	0.00  0.00  0.00 
	CHANNELS 6 Xposition Yposition Zposition Xrotation Zrotation Yrotation
	JOINT waist
	{
		OFFSET	0.000000 2.191865 -0.079388
		CHANNELS 3 Xrotation Zrotation Yrotation
		JOINT abdomen
		{
			OFFSET	0.000000 2.770984 0.119082
			CHANNELS 3 Xrotation Zrotation Yrotation
			JOINT chest
			{
				OFFSET	0.000000 2.879627 -0.290598
				CHANNELS 3 Xrotation Zrotation Yrotation
				JOINT neck
				{
					OFFSET	0.000000 12.342733 -1.613748
					CHANNELS 3 Xrotation Zrotation Yrotation
					JOINT head
					{
						OFFSET	0.000000 4.485597 1.807195
						CHANNELS 3 Xrotation Zrotation Yrotation
						End Site
						{
							OFFSET 0.000000 7.191734 2.024398
						}
					}
				}
				JOINT lCollar
				{
					OFFSET	1.858774 10.237258 -1.915852
					CHANNELS 3 Zrotation Yrotation Xrotation
					JOINT lShldr
					{
						OFFSET	6.103279 0.000102 -0.038601
						CHANNELS 3 Zrotation Yrotation Xrotation
						JOINT lForeArm
						{
							OFFSET	10.574100 -0.365985 -0.655940
							CHANNELS 3 Zrotation Yrotation Xrotation
							JOINT lHand
							{
								OFFSET	13.213392 -0.641131 0.276866
								CHANNELS 3 Zrotation Yrotation Xrotation
								JOINT lThumb1
								{
									OFFSET	1.920964 -1.225712 1.722395
									CHANNELS 3 Zrotation Yrotation Xrotation
									JOINT lThumb2
									{
										OFFSET	0.248544 -0.143036 0.768265
										CHANNELS 3 Zrotation Yrotation Xrotation
										JOINT lThumb3
										{
											OFFSET	0.628484 -0.225174 0.508305
											CHANNELS 3 Zrotation Yrotation Xrotation
											End Site
											{
												OFFSET 0.831712 -0.207978 0.609962
											}
										}
									}
								}
								JOINT lIndex1
								{
									OFFSET	5.093442 -0.710319 1.829884
									CHANNELS 3 Zrotation Yrotation Xrotation
									JOINT lIndex2
									{
										OFFSET	0.889470 -0.051998 0.127073
										CHANNELS 3 Zrotation Yrotation Xrotation
										JOINT lIndex3
										{
											OFFSET	0.889570 -0.155981 0.127073
											CHANNELS 3 Zrotation Yrotation Xrotation
											End Site
											{
												OFFSET 0.797115 -0.294470 0.076252
											}
										}
									}
								}
								JOINT lMid1
								{
									OFFSET	5.154641 -0.519844 0.864111
									CHANNELS 3 Zrotation Yrotation Xrotation
									JOINT lMid2
									{
										OFFSET	0.928821 -0.051992 0.050831
										CHANNELS 3 Zrotation Yrotation Xrotation
										JOINT lMid3
										{
											OFFSET	0.984253 -0.311865 0.050831
											CHANNELS 3 Zrotation Yrotation Xrotation
											End Site
											{
												OFFSET 0.779717 -0.606438 -0.050831
											}
										}
									}
								}
								JOINT lRing1
								{
									OFFSET	4.924408 -0.754930 -0.235503
									CHANNELS 3 Zrotation Yrotation Xrotation
									JOINT lRing2
									{
										OFFSET	0.981624 -0.036924 -0.108278
										CHANNELS 3 Zrotation Yrotation Xrotation
										JOINT lRing3
										{
											OFFSET	0.805613 -0.205247 -0.041717
											CHANNELS 3 Zrotation Yrotation Xrotation
											End Site
											{
												OFFSET 0.667431 -0.470481 -0.035991
											}
										}
									}
								}
								JOINT lPinky1
								{
									OFFSET	4.535460 -0.816635 -1.006206
									CHANNELS 3 Zrotation Yrotation Xrotation
									JOINT lPinky2
									{
										OFFSET	0.690596 -0.064334 -0.168800
										CHANNELS 3 Zrotation Yrotation Xrotation
										JOINT lPinky3
										{
											OFFSET	0.598039 -0.111176 -0.071973
											CHANNELS 3 Zrotation Yrotation Xrotation
											End Site
											{
												OFFSET 0.422025 -0.290925 -0.035981
											}
										}
									}
								}
							}
						}
					}
				}
				JOINT rCollar
				{
					OFFSET	-1.858774 10.237258 -1.915852
					CHANNELS 3 Zrotation Yrotation Xrotation
					JOINT rShldr
					{
						OFFSET	-6.103279 0.000102 -0.038601
						CHANNELS 3 Zrotation Yrotation Xrotation
						JOINT rForeArm
						{
							OFFSET	-10.574100 -0.365985 -0.655940
							CHANNELS 3 Zrotation Yrotation Xrotation
							JOINT rHand
							{
								OFFSET	-13.213392 -0.641131 0.276866
								CHANNELS 3 Zrotation Yrotation Xrotation
								JOINT rIndex1
								{
									OFFSET	-5.093442 -0.710319 1.829884
									CHANNELS 3 Zrotation Yrotation Xrotation
									JOINT rIndex2
									{
										OFFSET	-0.889470 -0.051998 0.127073
										CHANNELS 3 Zrotation Yrotation Xrotation
										JOINT rIndex3
										{
											OFFSET	-0.889570 -0.155981 0.127073
											CHANNELS 3 Zrotation Yrotation Xrotation
											End Site
											{
												OFFSET -0.797115 -0.294470 0.076252
											}
										}
									}
								}
								JOINT rThumb1
								{
									OFFSET	-1.920964 -1.225712 1.722395
									CHANNELS 3 Zrotation Yrotation Xrotation
									JOINT rThumb2
									{
										OFFSET	-0.248544 -0.143036 0.768265
										CHANNELS 3 Zrotation Yrotation Xrotation
										JOINT rThumb3
										{
											OFFSET	-0.628484 -0.225174 0.508305
											CHANNELS 3 Zrotation Yrotation Xrotation
											End Site
											{
												OFFSET -0.831712 -0.207978 0.609962
											}
										}
									}
								}
								JOINT rMid1
								{
									OFFSET	-5.154641 -0.519844 0.864111
									CHANNELS 3 Zrotation Yrotation Xrotation
									JOINT rMid2
									{
										OFFSET	-0.928821 -0.051992 0.050831
										CHANNELS 3 Zrotation Yrotation Xrotation
										JOINT rMid3
										{
											OFFSET	-0.984253 -0.311865 0.050831
											CHANNELS 3 Zrotation Yrotation Xrotation
											End Site
											{
												OFFSET -0.779717 -0.606438 -0.050831
											}
										}
									}
								}
								JOINT rRing1
								{
									OFFSET	-4.924408 -0.754930 -0.235503
									CHANNELS 3 Zrotation Yrotation Xrotation
									JOINT rRing2
									{
										OFFSET	-0.981624 -0.036924 -0.108278
										CHANNELS 3 Zrotation Yrotation Xrotation
										JOINT rRing3
										{
											OFFSET	-0.805613 -0.205247 -0.041717
											CHANNELS 3 Zrotation Yrotation Xrotation
											End Site
											{
												OFFSET -0.667431 -0.470481 -0.035991
											}
										}
									}
								}
								JOINT rPinky1
								{
									OFFSET	-4.535460 -0.816635 -1.006206
									CHANNELS 3 Zrotation Yrotation Xrotation
									JOINT rPinky2
									{
										OFFSET	-0.690596 -0.064334 -0.168800
										CHANNELS 3 Zrotation Yrotation Xrotation
										JOINT rPinky3
										{
											OFFSET	-0.598039 -0.111176 -0.071973
											CHANNELS 3 Zrotation Yrotation Xrotation
											End Site
											{
												OFFSET -0.422025 -0.290925 -0.035981
											}
										}
									}
								}
							}
						}
					}
				}
			}
		}
	}
	JOINT lThigh
	{
		OFFSET	5.761895 -0.730553 0.000101
		CHANNELS 3 Xrotation Zrotation Yrotation
		JOINT lShin
		{
			OFFSET	-1.171020 -18.459274 1.627449
			CHANNELS 3 Xrotation Zrotation Yrotation
			JOINT lFoot
			{
				OFFSET	-0.883715 -16.872776 -3.357785
				CHANNELS 3 Xrotation Zrotation Yrotation
				JOINT lToe
				{
					OFFSET	1.287613 -2.778491 2.836049
					CHANNELS 3 Xrotation Yrotation Zrotation
					End Site
					{
						OFFSET 1.362641 -0.436631 3.828194
					}
				}
			}
		}
	}
	JOINT rThigh
	{
		OFFSET	-5.761895 -0.730553 0.000101
		CHANNELS 3 Xrotation Zrotation Yrotation
		JOINT rShin
		{
			OFFSET	1.171020 -18.459274 1.627449
			CHANNELS 3 Xrotation Zrotation Yrotation
			JOINT rFoot
			{
				OFFSET	0.883715 -16.872776 -3.357785
				CHANNELS 3 Xrotation Zrotation Yrotation
				JOINT rToe
				{
					OFFSET	-1.287613 -2.778491 2.836049
					CHANNELS 3 Xrotation Yrotation Zrotation
					End Site
					{
						OFFSET -1.362641 -0.436631 3.828194
					}
				}
			}
		}
	}
}
MOTION
Frames:     4
Frame Time: 0.033333
0.408655 36.837402 3.529953 10.341507 -0.615433 -15.872484 -10.472347 -2.010941 6.927516 4.365824 -0.751118 6.932502 8.277588 -0.498345 8.174806 -2.454427 -0.930347 -2.152134 -16.292351 2.829596 -5.307862 7.212234 7.049563 1.400246 -82.936935 28.105537 7.986651 2.266339 -116.672668 38.960213 54.620693 -4.927035 -3.220787 20.709370 9.425510 49.014130 0.783167 9.276424 1.429375 -7.604094 17.751127 13.269839 2.905493 -14.263734 -4.273638 -44.580112 0.550056 4.677155 -24.299633 -3.937201 0.700029 -7.439078 -7.434057 0.486375 -13.526088 1.225742 -3.148771 -16.124613 -6.219121 -5.900497 -13.514208 1.123846 -1.228947 -6.558969 5.892273 1.154697 8.106262 -0.770835 -0.109930 -11.722481 -4.919719 -3.783718 0.376085 13.106568 2.463689 32.202847 -4.269495 -0.111357 -11.767063 1.802014 2.975176 60.004459 47.208706 -10.254493 -4.292912 71.513779 22.748005 -84.690216 9.639129 -6.927461 78.683838 -0.574367 2.818127 78.194504 -7.209432 5.695342 80.327141 -5.176896 6.508065 -10.073323 -17.022491 25.455086 15.189208 7.416860 13.390890 11.968467 -15.127272 15.634905 75.023689 1.456525 3.811922 82.685745 -3.371086 -0.529328 67.630814 -1.177070 -1.756359 85.475937 13.755935 -5.400374 75.573486 0.790653 -2.811784 64.791656 -3.744939 0.385202 89.546814 16.071470 -16.010237 82.771812 4.503959 -7.129567 84.717285 2.410623 -5.154559 -54.023834 15.297647 7.402780 31.457056 5.267428 -6.514035 29.081970 6.144912 -1.550124 -20.594677 7.945162 8.994404 0.096377 -12.556629 -1.841799 32.554337 0.566571 6.092803 51.702259 -16.278543 -1.073537 -31.383223 -9.109741 -11.515327 
0.408655 36.762589 3.529953 10.358604 -0.554810 -14.308810 -10.033315 -1.995159 6.838878 8.042289 -0.673661 6.728395 10.294670 -0.461862 7.335559 -2.535499 -0.837373 -1.947452 -20.425215 1.321970 -4.499304 7.491474 6.678048 0.485180 -82.401634 23.921547 6.658481 0.763779 -114.248566 38.844639 52.613045 -4.918201 -3.149979 20.712065 11.047466 47.591522 0.322713 8.402918 2.177754 -7.429237 18.254160 13.414573 1.456678 -14.550300 -4.083271 -43.241077 0.576032 4.556566 -24.684847 -3.726912 0.807926 -9.462535 -7.587017 0.587065 -14.595536 1.314423 -3.069176 -16.617926 -6.072548 -5.811423 -15.981544 0.792666 -1.448602 -7.744522 5.949023 1.108645 6.124854 -0.620897 -0.114308 -15.060606 -4.414268 -4.499045 -2.435096 13.091854 2.123795 28.951971 -4.091990 -0.273124 -11.562447 0.991215 3.051636 63.636787 43.693104 -12.216495 31.980774 98.659927 43.675533 -63.816967 15.343114 -7.478858 75.929245 -6.339019 3.078542 82.692657 -8.022722 5.583601 77.270203 -2.693088 5.562606 -9.006248 -13.618670 41.634174 6.445913 0.694401 10.093651 8.317375 -16.716669 13.330741 73.373161 -5.407159 4.227430 82.789528 -3.821029 -0.376274 67.100716 2.296562 -4.461999 78.821121 5.842360 -5.190280 80.962753 0.926097 -2.868613 60.988518 0.076843 -2.268314 80.521751 11.189551 -15.027877 88.140160 5.800644 -7.370262 84.717285 2.410623 -5.154559 -50.726006 13.877691 7.194499 32.792240 5.047753 -6.484375 15.339672 6.343480 -5.635247 -9.127195 7.742272 5.090414 -2.914145 -12.749073 -0.671983 41.658649 0.153912 6.297036 57.787960 -13.952626 -3.223773 -16.097429 -9.091125 -6.725215 
0.408655 36.762920 3.529953 10.377498 -0.476628 -12.090405 -9.175697 -1.923527 6.454638 11.334294 -0.617938 6.212350 12.360083 -0.213083 6.185631 -2.646762 -0.704247 -1.643006 -23.525248 -0.065150 -3.623328 7.856976 6.140578 -0.186405 -81.605705 18.492569 5.015296 -1.491058 -111.203979 39.269493 50.094048 -5.073156 -3.071945 20.609291 12.978819 45.900234 -0.217922 7.496014 3.108725 -7.204557 18.866333 13.583672 -0.365141 -14.862428 -3.838926 -41.589882 0.704575 4.420833 -25.133387 -3.377403 0.972394 -11.977534 -7.712007 0.715806 -15.884995 1.535912 -2.937899 -17.221182 -5.818789 -5.641817 -18.982025 0.446096 -1.712077 -9.184066 6.089277 1.072514 3.663896 -0.385931 -0.084301 -19.143536 -3.731834 -5.331854 -5.884559 13.022379 1.701135 24.952467 -3.838409 -0.452625 -11.279563 0.111968 3.156839 68.106331 38.647980 -14.765195 18.500824 101.590149 40.564594 -64.324440 8.221948 -6.527468 75.998940 -4.093379 2.938777 79.147697 -8.096297 5.286905 76.253159 -3.095258 5.709157 -10.983274 -14.951789 39.203743 6.287851 1.806813 9.003446 8.419509 -15.831429 12.900202 73.228462 -3.329350 4.106480 82.779350 -3.547020 -0.452888 67.696747 1.796694 -4.072860 79.039116 5.813039 -5.193951 79.731049 1.093671 -2.908751 61.493473 -0.410272 -1.930342 81.206146 11.047588 -15.001614 86.847801 5.541871 -7.328018 84.717285 2.410623 -5.154559 -48.451366 12.539234 6.630505 35.944290 4.808586 -6.621347 10.003744 6.205907 -10.214699 -10.178472 7.936532 5.366123 -6.594018 -12.066799 -0.092085 50.302670 -0.449696 6.501040 61.050968 -10.855536 -6.287088 -5.630411 -5.977030 -2.947720 
0.408655 36.685993 3.529953 10.396404 -0.368760 -9.363539 -8.035887 -1.824096 5.805310 13.917171 -0.573479 5.435921 14.081195 0.143457 4.775685 -2.748190 -0.545552 -1.275291 -25.244942 -0.944714 -2.818373 8.313327 5.329776 0.187523 -80.546837 11.809680 3.196857 -4.787211 -108.129890 39.536686 46.969501 -5.525375 -3.027529 20.374437 14.965692 44.256550 -0.685079 6.757319 4.095695 -6.887639 19.587036 13.735147 -2.471029 -15.146644 -3.552869 -39.763229 1.133162 4.317655 -25.609734 -2.761061 1.237519 -14.678284 -7.653338 0.863223 -17.253393 2.001754 -2.726610 -17.908968 -5.335292 -5.294084 -22.074272 0.287827 -1.978385 -10.739254 6.416618 1.078753 1.004307 0.039035 0.070277 -23.419094 -2.765885 -6.116090 -9.611151 12.974560 1.253668 20.559832 -3.453795 -0.579296 -10.928297 -0.806405 3.261755 71.811508 32.238464 -17.568933 11.162768 104.744293 38.895817 -62.830482 2.871489 -5.815575 76.390007 -2.522316 2.859141 72.128700 -8.212711 4.937404 70.408173 -3.401212 5.763849 -12.270405 -15.554698 37.401451 5.264922 2.135685 7.565718 7.947997 -15.381785 12.214759 73.439171 -1.662156 3.989684 82.876495 -3.408776 -0.486566 64.688416 1.660594 -3.949554 79.356415 5.018065 -5.190744 79.370819 1.237317 -2.944515 61.571251 -0.599509 -1.797819 81.775391 10.231958 -14.829901 86.496620 5.519868 -7.325669 84.717285 2.410623 -5.154559 -47.577454 11.422299 5.788903 41.461891 4.570212 -6.888780 11.135326 6.299962 -13.011501 -11.351697 8.261656 5.683086 -12.447367 -11.243268 0.360965 61.833836 -1.238923 7.056756 62.629868 -7.760013 -9.382728 5.002840 -1.702670 1.121696 
